<svg version="1.1" id="Layer_1" xmlns="http://www.w3.org/2000/svg" xmlns:xlink="http://www.w3.org/1999/xlink" x="0px" y="0px"
	 width="100%" viewBox="0 0 1024 928" enable-background="new 0 0 1024 928" xml:space="preserve">
<path fill="#000000" opacity="1.000000" stroke="none" 
	d="
M49.869133,480.903870 
	C44.279831,461.194702 47.549671,442.627808 54.657253,424.400848 
	C63.091545,402.771637 75.100067,382.896301 85.227501,362.098083 
	C90.325294,351.628967 95.525185,341.197418 100.188354,330.534363 
	C102.333694,325.628693 105.485428,323.259247 110.562714,323.985657 
	C117.736252,325.011932 124.615906,326.901215 127.887039,334.470856 
	C139.133286,360.495300 153.736954,384.841949 165.834274,410.434540 
	C173.718887,427.114960 179.587021,444.441376 179.189316,463.221161 
	C178.723267,485.228516 168.675919,502.352051 151.660400,515.745483 
	C150.520370,516.642822 149.285660,517.758972 147.282242,516.072021 
	C150.305023,512.441956 153.688370,509.098236 156.073654,504.949707 
	C165.696045,488.214294 164.095840,471.231293 157.915878,453.897675 
	C151.783096,436.696350 142.376389,421.116302 134.267899,404.894287 
	C125.301079,386.955109 117.767868,368.521973 113.992676,348.719635 
	C113.846359,347.952148 114.033440,347.047058 112.758820,346.310547 
	C111.475975,351.669495 110.267540,356.910309 108.964241,362.127472 
	C104.198120,381.206512 95.280701,398.548523 86.287491,415.836945 
	C78.296539,431.198669 69.751358,446.285889 65.416054,463.263855 
	C60.863800,481.091492 62.656105,497.586151 75.059761,512.043213 
	C76.065247,513.215210 77.704002,514.238342 77.036568,516.266846 
	C68.470253,514.628723 55.324188,497.584198 49.869133,480.903870 
z"/>
<path fill="#000000" opacity="1.000000" stroke="none" 
	d="
M723.833984,305.000702 
	C708.088928,298.358246 691.911072,307.090179 688.960083,323.408905 
	C687.702515,330.363342 688.243103,337.367249 688.200012,344.350708 
	C688.113708,358.344086 688.075562,372.339478 688.235901,386.331543 
	C688.285645,390.674347 686.577637,392.243683 682.321716,392.187683 
	C668.323242,392.003510 669.850891,393.249664 669.839111,379.957611 
	C669.815674,353.469116 669.812561,326.980621 669.808838,300.492126 
	C669.807922,293.949005 670.044556,293.721802 676.503662,293.668518 
	C686.651978,293.584778 686.651978,293.584808 688.970154,304.004791 
	C691.259827,302.146118 693.354919,300.334625 695.562195,298.672302 
	C706.559998,290.389862 718.842590,289.108154 731.590271,293.051605 
	C743.965088,296.879669 752.116455,308.590149 752.221191,322.004028 
	C752.390259,343.660065 752.251892,365.318359 752.372009,386.975006 
	C752.391602,390.507568 751.321167,392.197083 747.560486,392.177521 
	C732.019714,392.096710 734.867249,393.274902 734.741516,380.035309 
	C734.583374,363.377411 734.656189,346.716553 734.742737,330.057556 
	C734.763733,326.018127 734.164551,322.070007 733.389465,318.170410 
	C732.272522,312.551025 729.424133,307.957520 723.833984,305.000702 
z"/>
<path fill="#000000" opacity="1.000000" stroke="none" 
	d="
M578.758911,388.368622 
	C559.052551,376.703644 552.467834,358.971130 553.466614,337.413788 
	C553.860535,328.911316 555.948914,320.950592 560.216980,313.635651 
	C570.164734,296.586182 588.330139,288.139526 608.970276,292.229187 
	C627.630981,295.926605 639.383911,305.983887 645.010254,327.283600 
	C646.352478,332.364685 646.171265,337.503815 646.334839,342.658081 
	C646.450867,346.315521 645.038818,347.604004 641.307068,347.535095 
	C629.655884,347.319824 617.998657,347.427856 606.343811,347.419464 
	C597.020630,347.412720 587.692993,347.587250 578.376160,347.343903 
	C574.120361,347.232727 572.989807,348.632172 573.284973,352.866943 
	C575.447144,383.887512 607.893738,392.510376 628.392639,377.528351 
	C630.408630,376.054932 632.367920,374.496826 634.282959,372.893799 
	C638.340271,369.497589 642.051208,370.297791 644.382812,375.080200 
	C645.635681,377.649994 643.624084,378.765381 642.166687,379.977997 
	C627.581421,392.113617 610.952820,396.515259 592.265442,393.033325 
	C587.651184,392.173553 583.243774,390.738159 578.758911,388.368622 
M617.693054,306.809296 
	C608.947632,296.965790 591.345154,298.599792 584.256653,305.949738 
	C576.126221,314.380005 574.041870,324.659332 573.164185,335.577026 
	C572.911926,338.715790 575.335388,338.459564 577.264587,338.468964 
	C592.733887,338.544495 608.203674,338.536896 623.673035,338.608490 
	C626.580322,338.621948 627.966858,337.466675 627.843140,334.442902 
	C627.431824,324.389374 625.031921,315.066620 617.693054,306.809296 
z"/>
<path fill="#000000" opacity="1.000000" stroke="none" 
	d="
M420.389008,347.826965 
	C401.143219,347.701630 382.333832,347.538483 363.524109,347.418365 
	C357.013214,347.376770 356.440826,348.086609 357.183105,354.655151 
	C360.521820,384.200684 391.065613,391.326294 409.714783,379.040527 
	C413.178986,376.758392 416.478699,374.183289 419.631714,371.483490 
	C423.327698,368.318848 424.838989,371.807465 426.981506,373.563629 
	C429.556915,375.674622 428.624786,377.493317 426.576843,379.304138 
	C413.346832,391.001862 397.747681,396.347137 380.461212,393.586792 
	C349.930817,388.711639 333.388367,365.129333 337.552948,334.159943 
	C340.211426,314.390686 349.504669,299.443970 369.312897,293.494751 
	C397.167816,285.128723 426.437897,300.989044 429.447418,332.846466 
	C429.712799,335.655579 429.966309,338.467102 430.308899,341.267303 
	C430.867920,345.836304 429.446289,348.398804 424.306976,347.612518 
	C423.182587,347.440491 421.987701,347.729370 420.389008,347.826965 
M385.900604,299.895874 
	C378.193970,298.971802 371.783569,301.603760 366.726288,307.317932 
	C360.026855,314.887482 357.702148,324.122345 356.982941,333.956329 
	C356.719452,337.559143 358.288055,338.574158 361.597687,338.558014 
	C376.898499,338.483337 392.200562,338.463928 407.500580,338.603912 
	C410.938171,338.635376 411.796265,337.152466 411.662384,334.086975 
	C411.330475,326.486877 409.679138,319.201477 405.843048,312.647888 
	C401.604645,305.407013 395.508759,300.547302 385.900604,299.895874 
z"/>
<path fill="#000000" opacity="1.000000" stroke="none" 
	d="
M881.987122,293.654541 
	C893.098389,293.466400 893.050293,293.488037 897.482910,303.332184 
	C906.095764,322.459991 914.750793,341.568878 923.448303,360.658295 
	C924.169739,362.241852 924.420593,364.237122 926.737122,365.324036 
	C930.459717,358.605682 932.849609,351.359802 935.760681,344.363617 
	C942.218750,328.842346 948.617249,313.294586 954.827820,297.673248 
	C956.253174,294.087921 958.531921,292.866302 962.086365,293.057587 
	C966.448242,293.292328 967.363892,294.630737 965.723389,298.655975 
	C949.263306,339.041809 932.794006,379.423859 916.330017,419.808105 
	C914.555115,424.161835 912.121948,428.130188 909.162598,431.759857 
	C901.464294,441.202148 890.476135,442.848816 880.117188,436.351196 
	C877.008179,434.401093 876.004395,432.310303 878.013000,428.961823 
	C879.809204,425.967529 881.345032,422.814423 882.938721,419.702179 
	C884.326355,416.992279 885.723022,416.999390 887.860840,419.131378 
	C895.304871,426.555206 902.732056,425.058502 906.897949,415.344910 
	C909.456421,409.379303 911.455322,403.143097 914.396667,397.381256 
	C917.114197,392.057922 916.528259,387.512115 914.110413,382.279694 
	C901.331604,354.624603 888.829529,326.841583 876.255005,299.092224 
	C874.062622,294.254059 874.606140,293.724274 881.987122,293.654541 
z"/>
<path fill="#000000" opacity="1.000000" stroke="none" 
	d="
M471.626892,321.724487 
	C466.895966,336.850739 466.065094,351.614655 473.092377,365.823364 
	C479.436523,378.650848 495.024933,384.765137 510.867859,381.509735 
	C517.362854,380.175171 523.171265,377.515259 528.456360,373.560883 
	C532.418518,370.596313 533.519653,374.548401 535.380920,376.562103 
	C537.430847,378.779877 537.061157,380.599304 534.575439,382.290955 
	C512.829163,397.090302 487.724915,399.106812 466.988342,383.702454 
	C456.038391,375.568176 450.613373,364.035339 448.635468,350.559937 
	C446.531860,336.228027 448.863037,322.958923 457.186981,311.127777 
	C468.481049,295.075012 484.920776,290.307526 503.600739,291.217743 
	C513.338684,291.692200 522.113159,294.898560 529.890808,300.896332 
	C533.880798,303.973175 536.321716,308.030701 538.239380,312.518707 
	C539.390930,315.213623 538.370544,316.802246 535.534302,316.946259 
	C530.138123,317.220337 525.556763,317.681854 521.789978,311.316589 
	C514.291321,298.645111 494.881500,297.159180 482.450378,307.122528 
	C477.651886,310.968445 474.182495,315.756409 471.626892,321.724487 
z"/>
<path fill="#000000" opacity="1.000000" stroke="none" 
	d="
M777.639893,331.938538 
	C781.309692,308.456573 798.264465,292.740997 825.153748,291.053070 
	C836.698425,290.328400 847.651367,292.981110 857.221863,299.977417 
	C861.488770,303.096619 864.782837,306.978302 866.610718,311.993927 
	C867.122131,313.397003 867.729065,314.868469 866.360840,316.160919 
	C864.114502,318.282867 853.649109,316.897186 852.244202,314.091614 
	C842.881653,295.395020 815.728882,296.684906 804.529602,314.069580 
	C793.941895,330.505005 793.949463,348.534149 801.963806,366.078308 
	C807.804077,378.863129 824.164734,384.916107 839.831543,381.449219 
	C846.111877,380.059418 851.814880,377.534485 856.958130,373.674194 
	C861.182861,370.503235 862.319336,374.891724 864.316833,376.867828 
	C866.417603,378.946106 865.496826,380.783112 863.382202,382.218597 
	C843.939087,395.416901 821.702881,399.030731 800.348694,386.963806 
	C782.346375,376.791016 774.065796,354.153778 777.639893,331.938538 
z"/>
<path fill="#000000" opacity="1.000000" stroke="none" 
	d="
M268.831940,352.000000 
	C268.845856,334.513885 268.840698,317.527679 268.884186,300.541656 
	C268.901245,293.873840 269.082611,293.506378 275.506653,293.767761 
	C279.032349,293.911255 283.152557,291.550873 286.012207,294.688385 
	C288.600708,297.528381 286.193787,301.785004 287.605164,305.357025 
	C289.568939,304.284973 290.197601,302.307922 291.300201,300.752441 
	C299.087219,289.766937 314.079285,287.973724 324.178864,296.752869 
	C326.453583,298.730225 327.146301,300.710938 325.313660,303.203064 
	C323.294403,305.948975 322.664154,309.687714 319.601837,311.582733 
	C317.548492,311.232544 316.745850,309.585327 315.492310,308.550049 
	C307.520172,301.965820 296.777740,303.949219 291.678223,313.017792 
	C288.426147,318.801086 287.073456,325.044220 287.093933,331.663727 
	C287.149567,349.648865 287.136261,367.634216 287.120880,385.619507 
	C287.115784,391.564850 286.525665,392.127747 280.466431,392.108673 
	C267.782623,392.068787 268.897400,392.946320 268.887787,380.477142 
	C268.880615,371.151428 268.851624,361.825714 268.831940,352.000000 
z"/>
<path fill="#000000" opacity="1.000000" stroke="none" 
	d="
M232.103256,339.000000 
	C232.116425,395.633484 232.128571,451.766937 232.137451,507.900421 
	C232.137711,509.565948 232.124329,511.231995 232.080200,512.896851 
	C232.027954,514.868103 231.624802,516.681335 229.141525,516.687073 
	C226.490158,516.693176 225.840820,514.912109 225.869232,512.651733 
	C225.879700,511.819183 225.851898,510.986206 225.851837,510.153412 
	C225.846298,434.531494 225.840256,358.909607 225.849564,283.287689 
	C225.849716,281.964172 225.877304,280.603546 226.176910,279.327057 
	C226.509460,277.910278 227.570206,277.070404 229.106216,277.110931 
	C230.673874,277.152252 231.605621,278.111115 231.809738,279.557159 
	C232.040985,281.195618 232.072540,282.871765 232.074585,284.531647 
	C232.096817,302.521088 232.096161,320.510559 232.103256,339.000000 
z"/>
<path fill="#000000" opacity="1.000000" stroke="none" 
	d="
M89.430130,504.591919 
	C99.287201,510.640900 109.452583,513.130371 120.703804,511.170502 
	C131.473679,509.294495 140.290802,503.926056 148.400162,496.743500 
	C144.705063,509.584900 135.431702,516.520630 123.844635,521.057678 
	C110.118073,526.432556 89.754372,521.512024 80.089272,510.561615 
	C69.573509,498.647430 63.833694,485.464081 69.395493,469.064758 
	C71.946587,483.208252 76.597473,496.051117 89.430130,504.591919 
z"/>
<path fill="#000000" opacity="1.000000" stroke="none" 
	d="
M476.893646,480.452698 
	C472.136719,477.174500 468.631744,478.699829 468.201385,484.131714 
	C467.833954,488.769287 468.044434,493.452240 467.986786,498.114929 
	C467.956543,500.561462 467.783997,502.999207 464.498840,503.089050 
	C461.155640,503.180511 460.908752,500.761414 460.904144,498.292816 
	C460.892365,491.963013 460.970306,485.632568 460.904022,479.303528 
	C460.861267,475.218781 462.780670,473.799072 466.566895,474.956482 
	C467.744385,475.316467 468.722137,475.518524 469.899902,475.022400 
	C474.672363,473.012054 479.015869,473.837616 482.666473,477.193970 
	C484.459167,477.253723 485.146820,475.863220 486.275757,475.234039 
	C493.004333,471.484436 500.426331,474.997101 501.088562,482.620422 
	C501.577026,488.243042 501.252472,493.936890 501.274200,499.599060 
	C501.282471,501.754120 500.369324,503.112579 498.033630,503.110626 
	C495.587097,503.108582 494.954224,501.493561 494.935303,499.461060 
	C494.890381,494.630829 494.911713,489.800049 494.878815,484.969666 
	C494.858459,481.981689 494.414581,478.991150 490.827911,478.484650 
	C487.021545,477.947083 485.571747,480.810669 484.790527,483.860352 
	C483.575287,488.604431 484.457336,493.477234 484.203857,498.285889 
	C484.091644,500.415070 484.463257,502.977112 481.247742,503.049591 
	C477.888062,503.125275 477.881714,500.643677 477.768555,498.185272 
	C477.501648,492.387543 478.535767,486.539062 476.893646,480.452698 
z"/>
<path fill="#000000" opacity="1.000000" stroke="none" 
	d="
M569.620605,495.427643 
	C574.374695,501.079193 576.658020,501.478668 582.616028,498.126129 
	C584.181091,497.245453 586.039978,494.804474 587.567383,497.637878 
	C588.807129,499.937531 586.485657,501.153076 584.770142,502.146545 
	C578.573486,505.735138 569.813232,504.679016 565.375854,499.867065 
	C560.720398,494.818604 560.120789,485.112335 564.113098,479.423950 
	C567.433655,474.692719 573.410034,472.851501 579.715698,474.617065 
	C584.549255,475.970459 588.331055,480.696960 588.882202,485.961823 
	C589.222290,489.211060 588.153442,491.098236 584.572998,491.052704 
	C580.414429,490.999817 576.252258,491.160156 572.095154,491.070251 
	C568.859741,491.000275 568.357361,492.476532 569.620605,495.427643 
M581.177979,485.999786 
	C582.711792,482.541199 580.850037,480.238251 578.264404,478.542297 
	C576.178589,477.174194 573.770508,477.439423 571.788330,479.038177 
	C569.882019,480.575745 568.703186,482.686279 569.443909,485.138123 
	C570.151855,487.481201 572.442932,486.695160 574.133118,486.741516 
	C576.261230,486.799896 578.397461,486.565216 581.177979,485.999786 
z"/>
<path fill="#000000" opacity="1.000000" stroke="none" 
	d="
M297.561829,499.334290 
	C290.227203,488.194794 295.072845,474.987976 306.491608,474.026093 
	C314.124054,473.383148 320.304474,478.431000 321.194611,485.860352 
	C321.593567,489.190277 320.538269,490.992615 316.994965,490.995087 
	C312.831360,490.998016 308.667450,491.054443 304.504395,491.130188 
	C301.359039,491.187408 300.850677,492.764069 302.037201,495.411407 
	C304.232513,500.309418 309.673584,501.486298 315.121826,498.191101 
	C316.718079,497.225616 318.559937,494.843750 320.146027,497.402008 
	C321.831543,500.120789 318.849670,501.103149 317.104370,502.052032 
	C310.218292,505.795746 304.230652,504.973267 297.561829,499.334290 
M301.871552,486.027557 
	C305.005890,487.521454 308.329498,486.636414 311.563782,486.739288 
	C314.771332,486.841309 315.082947,484.897278 314.042145,482.466370 
	C312.654266,479.224670 310.158966,477.512054 306.602386,478.111816 
	C302.610565,478.784943 301.498352,481.745972 301.871552,486.027557 
z"/>
<path fill="#000000" opacity="1.000000" stroke="none" 
	d="
M514.113647,475.813049 
	C526.365784,470.916351 536.369080,477.101288 536.303223,489.141205 
	C536.259705,497.092743 532.788513,501.817474 525.523315,503.813812 
	C519.344543,505.511627 512.515808,502.828369 509.105927,497.362885 
	C505.292969,491.251343 505.899750,483.693451 510.701996,478.500488 
	C511.590149,477.540039 512.739990,476.821564 514.113647,475.813049 
M527.149170,497.655273 
	C529.900269,493.159912 530.451477,488.397034 528.829468,483.394684 
	C527.746460,480.054657 525.636841,478.257263 521.901672,478.164429 
	C517.908264,478.065186 515.644775,480.093262 514.489929,483.501282 
	C513.532471,486.326721 513.344482,489.275360 513.952454,492.308807 
	C515.421631,499.638733 519.892822,501.782562 527.149170,497.655273 
z"/>
<path fill="#000000" opacity="1.000000" stroke="none" 
	d="
M415.872009,494.423462 
	C418.016052,494.862732 418.807343,496.437653 419.887207,497.663208 
	C421.577301,499.581268 423.686707,500.268890 426.160034,499.877991 
	C427.897705,499.603394 429.381470,498.926666 429.687439,496.931946 
	C429.954010,495.194122 429.069092,494.034332 427.580414,493.369110 
	C425.007843,492.219452 422.406738,491.129211 419.788116,490.088104 
	C415.992798,488.579071 413.687714,485.956787 414.020660,481.748901 
	C414.371704,477.311798 417.242004,474.860596 421.413818,474.219940 
	C425.605560,473.576172 429.758270,473.897614 432.908539,477.334564 
	C433.946777,478.467285 434.801514,479.941345 433.520599,481.327057 
	C432.122314,482.839752 430.831451,481.738770 429.686829,480.685059 
	C429.078186,480.124756 428.569336,479.327393 427.853058,479.035492 
	C425.170319,477.942230 422.004761,476.980347 420.365051,480.102264 
	C418.517487,483.619904 422.181824,484.007538 424.239105,485.005188 
	C426.916260,486.303497 429.951996,486.784546 432.417297,488.601685 
	C437.503998,492.350952 437.449158,498.823334 432.277710,502.353577 
	C427.592529,505.551880 418.911377,504.753754 415.233765,500.500488 
	C413.647339,498.665771 410.983246,496.199463 415.872009,494.423462 
z"/>
<path fill="#000000" opacity="1.000000" stroke="none" 
	d="
M358.582733,490.542114 
	C354.294830,488.930298 351.610107,486.419830 351.913910,481.910675 
	C352.173859,478.052521 354.143250,475.308563 358.086426,474.427734 
	C362.694427,473.398438 367.078583,473.749939 370.588867,477.342346 
	C371.667145,478.445801 372.300720,480.017303 370.945862,481.347321 
	C369.707245,482.563202 368.525635,481.728546 367.479340,480.765564 
	C366.748535,480.093018 366.070251,479.190155 365.194946,478.880005 
	C362.449188,477.907074 359.232635,477.144318 357.839203,480.501495 
	C356.548218,483.611816 359.840302,484.181458 361.795380,485.105835 
	C364.040649,486.167389 366.534576,486.714233 368.750244,487.824432 
	C371.924988,489.415192 374.069855,492.065826 373.899292,495.731384 
	C373.719696,499.591187 371.370850,502.052094 367.725800,503.382263 
	C362.515320,505.283752 355.450958,503.852814 352.556915,500.045715 
	C351.484161,498.634552 350.012543,496.833344 351.816040,495.198425 
	C353.639191,493.545715 355.205505,494.989899 356.388519,496.511536 
	C358.262451,498.921997 360.617828,500.238251 363.715546,499.913330 
	C365.689453,499.706329 367.264160,498.834991 367.619629,496.695618 
	C367.955414,494.674622 366.700958,493.663147 364.992340,493.016815 
	C362.969543,492.251648 360.958862,491.454590 358.582733,490.542114 
z"/>
<path fill="#000000" opacity="1.000000" stroke="none" 
	d="
M326.697601,478.098633 
	C331.539764,473.237091 339.684143,472.704865 343.522339,476.687958 
	C344.698456,477.908508 346.053253,479.458832 344.798187,481.054962 
	C343.283356,482.981476 341.937500,481.252563 340.649475,480.225159 
	C339.758545,479.514465 338.787842,478.589478 337.753418,478.437744 
	C335.526520,478.111145 332.707245,477.341431 331.587891,480.117889 
	C330.336426,483.221985 333.108185,484.067230 335.249481,484.943939 
	C337.555542,485.888153 340.031586,486.465332 342.243866,487.579224 
	C345.619049,489.278625 347.481720,491.995331 347.219177,496.038086 
	C346.951538,500.159058 344.509338,502.302795 340.985443,503.603851 
	C335.967285,505.456543 328.763977,503.599457 325.960571,499.683105 
	C324.923523,498.234436 323.389862,496.443695 325.329742,494.861725 
	C327.195770,493.339966 328.767426,494.766602 329.868134,496.382812 
	C331.876495,499.331909 334.608795,500.442749 338.071045,499.816711 
	C339.682678,499.525269 340.790863,498.571808 341.220673,496.971436 
	C341.707764,495.157745 340.597076,494.068207 339.201019,493.398224 
	C336.953400,492.319489 334.620209,491.411926 332.296326,490.500610 
	C325.934448,488.005676 324.654510,485.373596 326.697601,478.098633 
z"/>
<path fill="#000000" opacity="1.000000" stroke="none" 
	d="
M553.353271,474.042603 
	C554.877563,474.200439 556.065186,474.251343 557.135132,474.632568 
	C558.505859,475.120819 559.342468,476.192871 558.980530,477.742981 
	C558.569214,479.504333 557.334961,480.290497 555.613403,479.748993 
	C550.746277,478.218018 549.531006,480.980103 548.774536,484.999359 
	C547.983398,489.202728 549.058838,493.301117 548.869141,497.444427 
	C548.757446,499.884216 549.227844,502.922729 545.558472,503.037262 
	C541.959167,503.149597 541.932617,500.338593 541.940735,497.742035 
	C541.959839,491.581146 541.985107,485.420319 542.022522,479.259521 
	C542.043945,475.730103 543.471313,473.601776 547.247986,475.032532 
	C549.531921,475.897797 551.031372,474.137665 553.353271,474.042603 
z"/>
<path fill="#000000" opacity="1.000000" stroke="none" 
	d="
M284.869812,502.979919 
	C281.443512,503.240204 280.826660,501.352417 280.828400,498.902954 
	C280.835754,488.581329 280.829010,478.259735 280.840088,467.938110 
	C280.842590,465.615662 281.187134,463.427124 284.216125,463.472504 
	C287.022705,463.514557 287.207123,465.632172 287.210876,467.722046 
	C287.229492,478.043610 287.226318,488.365265 287.223969,498.686859 
	C287.223572,500.374176 287.231262,502.080994 284.869812,502.979919 
z"/>
<path fill="#000000" opacity="1.000000" stroke="none" 
	d="
M399.954803,497.668030 
	C399.952484,491.221954 399.910400,485.237183 399.987457,479.253937 
	C400.018646,476.828735 400.371460,474.370117 403.677887,474.485260 
	C406.696472,474.590332 406.904358,476.938385 406.925873,479.148407 
	C406.987366,485.464508 406.972504,491.781830 406.924438,498.098206 
	C406.906403,500.467743 406.895966,503.094971 403.521057,503.059326 
	C400.318817,503.025482 399.997009,500.610809 399.954803,497.668030 
z"/>
<path fill="#000000" opacity="1.000000" stroke="none" 
	d="
M400.992004,464.168549 
	C403.534729,462.778168 405.459473,463.009674 406.729553,465.378601 
	C407.433411,466.691437 407.090607,467.977631 406.122559,469.034546 
	C404.816101,470.460846 403.194458,470.610229 401.659241,469.570740 
	C399.704285,468.247009 399.397797,466.443268 400.992004,464.168549 
z"/>
</svg>